<?xml version="1.0" encoding="UTF-8"?>
<svg id="Layer_1" data-name="Layer 1" xmlns="http://www.w3.org/2000/svg" viewBox="0 0 612 792">
  <defs>
    <style>
      .cls-1 {
        fill: #231f20;
        stroke: #231f20;
      }

      .cls-1, .cls-2 {
        stroke-miterlimit: 10;
      }

      .cls-2 {
        fill: #808285;
        stroke: #808285;
      }
    </style>
  </defs>
  <g>
    <path class="cls-2" d="M224.16,529.77c-.01,22.16-.03,44.3-.04,66.46-.01,22.15-.03,44.29-.04,66.44-20.89,4.35-41.8,8.7-62.7,13.05.01-22.15.03-44.3.04-66.45,0-1.02,0-2.03,0-3.05.02-36.94,25.95-68.79,62.11-76.32l.63-.13Z"/>
    <path class="cls-2" d="M224.41,131.06c-.01,22.16-.03,44.3-.04,66.46-.01,22.15-.03,44.3-.05,66.45,0,22.15-.01,44.29-.04,66.44-20.89,4.35-41.8,8.7-62.7,13.05.01-22.15.03-44.3.05-66.45.01-22.15.03-44.3.04-66.45,0-1.02,0-2.03,0-3.05.02-36.94,25.95-68.79,62.11-76.32l.63-.13Z"/>
    <path class="cls-2" d="M412.24,557.1l-.04,66.44c-.21.04-.42.09-.63.13-36.16,7.53-62.08,39.37-62.12,76.31,0,1.02,0,2.04,0,3.06-20.89,4.35-41.8,8.7-62.7,13.03-20.89,4.35-41.8,8.7-62.7,13.05.01-22.15.03-44.3.04-66.45,20.91-4.34,41.81-8.68,62.7-13.03.01-22.15.03-44.3.04-66.45,20.91-4.35,41.81-8.7,62.72-13.05,20.91-4.34,41.81-8.68,62.7-13.03Z"/>
    <path class="cls-2" d="M537.73,398.11c-.01,22.15-3.62,39.38-17.6,56.56s-24.25,18.59-45.15,22.94c-.01,22.15-.03,44.3-.04,66.45-20.89,4.35-41.8,8.7-62.7,13.05.01-22.16.03-44.3.04-66.46-20.89,4.35-41.8,8.7-62.7,13.05-20.91,4.35-41.81,8.7-62.72,13.03h0c-20.89,4.35-41.8,8.7-62.7,13.05v-7.84c.02-29.83,44.09-67.77,73.29-73.84l3.88-.81c20.91-4.34-35.33,7.35-14.44,3,20.91-4.35,41.81-8.7,62.72-13.05,20.91-4.35,41.81-8.7,62.7-13.03.01-22.15.03-44.3.04-66.45-20.89,4.35-41.8,8.7-62.7,13.03h0c-20.89,4.35-41.8,8.7-62.7,13.05-20.91,4.35-41.81,8.7-62.72,13.05.01-22.16.03-44.3.04-66.46,20.91-4.35,41.81-8.7,62.72-13.03h0c20.91-4.35,41.81-8.7,62.7-13.05,20.91-4.35,41.81-8.7,62.7-13.05.01-22.15.03-44.29.04-66.44s.03-44.3.04-66.45c.01-22.16.03-44.3.04-66.46,20.91-4.35,41.81-8.68,62.72-13.03-.01,22.15-.03,44.3-.04,66.45-.01,22.15-.03,44.3-.04,66.45-.03,22.15-.04,44.3-.05,66.45-.01,22.15-.03,44.3-.04,66.45-.01,22.15-.03,44.3-.04,66.45,20.91-4.35,41.81-8.7,62.72-13.05Z"/>
  </g>
  <g>
    <path class="cls-1" d="M192.77,513.75c-.01,22.16-.03,44.3-.04,66.46-.01,22.15-.03,44.29-.04,66.44-20.89,4.35-41.8,8.7-62.7,13.05.01-22.15.03-44.3.04-66.45,0-1.02,0-2.03,0-3.05.02-36.94,25.95-68.79,62.11-76.32l.63-.13Z"/>
    <path class="cls-1" d="M193.02,115.04c-.01,22.16-.03,44.3-.04,66.46-.01,22.15-.03,44.3-.05,66.45,0,22.15-.01,44.29-.04,66.44-20.89,4.35-41.8,8.7-62.7,13.05.01-22.15.03-44.3.05-66.45.01-22.15.03-44.3.04-66.45,0-1.02,0-2.03,0-3.05.02-36.94,25.95-68.79,62.11-76.32l.63-.13Z"/>
    <path class="cls-1" d="M380.85,541.08l-.04,66.44c-.21.04-.42.09-.63.13-36.16,7.53-62.08,39.37-62.12,76.31,0,1.02,0,2.04,0,3.06-20.89,4.35-41.8,8.7-62.7,13.03-20.89,4.35-41.8,8.7-62.7,13.05.01-22.15.03-44.3.04-66.45,20.91-4.34,41.81-8.68,62.7-13.03l.06-.07c-1.41-38.19,24.94-71.57,62.07-79.3.21-.04.42-.09.63-.13,20.91-4.34,41.81-8.68,62.7-13.03Z"/>
    <path class="cls-1" d="M506.34,382.09c-.01,22.15-2.48,41.58-16.46,58.76-13.48,16.56-25.39,16.39-46.3,20.74-.01,22.15-.03,44.3-.04,66.45-20.89,4.35-41.8,8.7-62.7,13.05.01-22.16.03-44.3.04-66.46-20.89,4.35-41.8,8.7-62.7,13.05-20.91,4.35-41.81,8.7-62.72,13.03h0c-20.89,4.35-41.8,8.7-62.7,13.05v-7.81c.03-34.16,23.97-63.72,57.43-70.63,10.94-2.26,32.85-6.77,32.85-6.77,20.91-4.34-31.62,6.58-10.72,2.23,20.91-4.35,25-5.2,45.9-9.55,20.91-4.35,41.81-8.7,62.7-13.03.01-22.15.03-44.3.04-66.45-20.89,4.35-41.8,8.7-62.7,13.03h0c-20.89,4.35-41.8,8.7-62.7,13.05-20.91,4.35-41.81,8.7-62.72,13.05.01-22.16.03-44.3.04-66.46,20.91-4.35,41.81-8.7,62.72-13.03h0c20.91-4.35,41.81-8.7,62.7-13.05,20.91-4.35,41.81-8.7,62.7-13.05.01-22.15.03-44.29.04-66.44s.03-44.3.04-66.45c.01-22.16.03-44.3.04-66.46,20.91-4.35,41.81-8.68,62.72-13.03-.01,22.15-.03,44.3-.04,66.45-.01,22.15-.03,44.3-.04,66.45-.03,22.15-.04,44.3-.05,66.45-.01,22.15-.03,44.3-.04,66.45-.01,22.15-.03,44.3-.04,66.45,20.91-4.35,41.81-8.7,62.72-13.05Z"/>
  </g>
</svg>